<?xml version="1.0" standalone="no"?>
<!DOCTYPE svg PUBLIC "-//W3C//DTD SVG 20010904//EN"
 "http://www.w3.org/TR/2001/REC-SVG-20010904/DTD/svg10.dtd">
<svg version="1.0" xmlns="http://www.w3.org/2000/svg"
 width="301.000000pt" height="59.000000pt" viewBox="0 0 301.000000 59.000000"
 preserveAspectRatio="xMidYMid meet">

<g transform="translate(0.000000,59.000000) scale(0.100000,-0.100000)"
fill="#000000" stroke="none">
<path d="M415 481 l-30 -6 -2 -100 c-1 -55 -3 -111 -3 -125 0 -24 -1 -23 -21
10 -12 19 -25 37 -29 40 -4 3 -23 30 -43 60 -76 114 -81 120 -108 120 l-26 0
-6 -182 c-8 -239 -9 -232 36 -236 l36 -3 3 128 3 128 44 -65 c25 -36 50 -70
56 -77 7 -6 26 -34 44 -62 29 -45 37 -51 67 -51 l34 0 0 215 c0 166 -3 215
-12 214 -7 -1 -26 -4 -43 -8z"/>
<path d="M1815 471 c-88 -39 -125 -100 -125 -201 0 -66 16 -107 59 -153 42
-46 73 -57 158 -57 105 0 143 21 143 80 0 22 -1 40 -3 40 -1 0 -20 -9 -42 -20
-86 -44 -196 -12 -216 64 -16 59 -3 124 32 158 28 28 32 29 106 26 43 -2 86
-8 96 -12 15 -7 17 -3 17 33 0 35 -4 43 -26 51 -43 17 -155 12 -199 -9z"/>
<path d="M2124 477 c-2 -7 -3 -102 -2 -212 l3 -200 42 -3 42 -3 3 83 c3 83 3
83 31 86 26 3 30 -2 68 -82 l40 -86 50 0 c28 0 48 3 46 7 -2 5 -23 47 -46 94
l-43 85 36 36 c28 28 36 44 36 72 0 95 -62 135 -208 136 -66 0 -94 -4 -98 -13z
m204 -79 c7 -7 12 -26 12 -43 0 -44 -16 -55 -77 -55 l-53 0 0 55 0 55 53 0
c29 0 58 -5 65 -12z"/>
<path d="M2526 482 c-3 -3 -6 -99 -6 -214 l0 -208 45 0 45 0 0 131 c0 90 3
128 11 124 6 -4 31 -38 55 -77 51 -79 54 -79 99 4 16 29 32 55 36 58 3 3 9 14
12 25 2 11 5 -44 6 -122 l1 -143 45 0 45 0 0 215 0 215 -50 0 c-42 0 -50 -3
-50 -19 0 -10 -8 -29 -18 -42 -11 -13 -31 -46 -47 -72 -16 -28 -31 -45 -36
-40 -5 5 -32 45 -59 88 -48 76 -52 79 -89 81 -22 1 -42 -1 -45 -4z"/>
<path d="M661 382 c-71 -36 -115 -125 -97 -196 9 -36 53 -84 97 -106 43 -23
136 -27 188 -9 27 10 31 15 31 49 l0 37 -52 -14 c-29 -7 -66 -11 -83 -7 -32 6
-95 44 -95 57 0 4 38 7 84 7 46 0 104 3 130 6 l46 7 0 41 c0 49 -36 108 -80
131 -39 20 -127 19 -169 -3z m136 -74 c13 -12 23 -25 23 -30 0 -4 -38 -8 -85
-8 -47 0 -85 4 -85 9 0 5 12 19 26 30 36 28 91 27 121 -1z"/>
<path d="M940 394 c0 -8 38 -62 77 -108 18 -22 33 -45 33 -52 0 -8 -13 -28
-28 -46 -34 -40 -82 -110 -82 -120 0 -5 22 -8 48 -8 48 0 49 1 76 50 15 27 31
52 35 55 5 2 24 -20 42 -50 33 -54 34 -55 81 -55 26 0 48 2 48 6 0 5 -64 100
-99 145 l-20 26 22 30 c12 17 37 49 55 73 17 24 32 47 32 52 0 4 -20 8 -44 8
-42 0 -46 -2 -75 -50 -17 -27 -34 -50 -38 -50 -5 0 -21 23 -36 50 -28 49 -29
50 -78 50 -27 0 -49 -3 -49 -6z"/>
<path d="M1368 389 c-23 -9 -28 -17 -28 -46 0 -32 2 -35 23 -29 12 4 47 10 78
13 49 5 58 3 77 -17 29 -31 20 -40 -41 -40 -60 0 -130 -29 -146 -58 -14 -26
-14 -77 -1 -103 6 -10 24 -26 40 -34 33 -17 132 -20 160 -5 14 8 25 7 40 -2
17 -11 23 -9 47 14 20 20 24 30 16 40 -6 7 -13 57 -15 110 -3 95 -4 99 -36
130 -30 31 -37 33 -110 35 -42 1 -89 -2 -104 -8z m156 -175 c10 -4 16 -18 16
-40 0 -38 -19 -48 -85 -42 -74 6 -70 60 6 78 46 11 45 11 63 4z"/>
</g>
</svg>
