<?xml version="1.0" encoding="UTF-8"?>
<svg version="1.1" xmlns="http://www.w3.org/2000/svg" width="360" height="360">
<path d="M0 0 C3.09042688 0.70777045 5.09554471 1.56296873 7.66015625 3.44921875 C8.36132568 3.96025146 9.06249512 4.47128418 9.78491211 4.99780273 C10.53651611 5.55540283 11.28812012 6.11300293 12.0625 6.6875 C12.85470947 7.26765869 13.64691895 7.84781738 14.46313477 8.44555664 C16.97992272 10.2910031 19.49016312 12.14511473 22 14 C23.58039051 15.1619191 25.16111319 16.32338655 26.7421875 17.484375 C32.30059643 21.56987498 37.84792978 25.6703207 43.39550781 29.77050781 C51.90093735 36.05501735 60.41808621 42.32019635 69 48.5 C79.19341866 55.84024221 89.29401291 63.30454358 99.39550781 70.77050781 C107.90093735 77.05501735 116.41808621 83.32019635 125 89.5 C135.19341866 96.84024221 145.29401291 104.30454358 155.39550781 111.77050781 C163.90093926 118.05501877 172.41817466 124.32007127 181 130.5 C187.37741703 135.09362757 193.73146175 139.71762725 200.0625 144.375 C200.82369141 144.93380859 201.58488281 145.49261719 202.36914062 146.06835938 C203.80233255 147.12472608 205.22773609 148.19178642 206.64309692 149.27192688 C208.95689219 151.01970471 208.95689219 151.01970471 211.36776733 152.44389343 C214.85261844 154.71832557 217.52769751 156.4679439 218.78727722 160.55377197 C219.04077325 163.61446632 219.01367159 166.55289974 218.87890625 169.62109375 C218.85980446 171.27094017 218.85980446 171.27094017 218.84031677 172.95411682 C218.79012286 176.45086596 218.67724944 179.94233298 218.5625 183.4375 C218.5173356 185.81437791 218.47627446 188.19133758 218.43945312 190.56835938 C218.34047848 196.38069395 218.19008689 202.18996969 218 208 C214.37841711 206.25094834 211.18782726 204.10373354 207.9375 201.75 C207.33389648 201.31598877 206.73029297 200.88197754 206.10839844 200.43481445 C200.14240029 196.13145922 194.22783169 191.75799553 188.31225586 187.38574219 C182.89983934 183.38851609 177.46111979 179.43037409 172 175.5 C161.80637289 168.1600532 151.7059823 160.69545288 141.60449219 153.22949219 C133.09906265 146.94498265 124.58191379 140.67980365 116 134.5 C105.71948343 127.09703891 95.52935316 119.57288524 85.34667969 112.03613281 C83.5667524 110.71874183 81.78640657 109.40191613 80.00561523 108.08569336 C78.32443754 106.84306986 76.64422309 105.59914186 74.96508789 104.35375977 C74.21219482 103.79744873 73.45930176 103.2411377 72.68359375 102.66796875 C72.01900146 102.17578857 71.35440918 101.6836084 70.66967773 101.17651367 C68.99984045 99.93757917 68.99984045 99.93757917 67 99 C66.67 128.7 66.34 158.4 66 189 C53.03833333 192.535 53.03833333 192.535 46.625 192.4375 C45.5421875 192.42614014 45.5421875 192.42614014 44.4375 192.41455078 C33.69868561 192.08963524 24.35795357 188.76204511 16 182 C15.07960938 181.28263672 15.07960938 181.28263672 14.140625 180.55078125 C5.70848961 173.14468003 1.47389954 161.8786001 0 151 C-0.26908473 146.00081409 -0.25385792 141.00806631 -0.22705078 136.00341797 C-0.22648559 134.51427722 -0.22680534 133.02513591 -0.22793579 131.53599548 C-0.22850608 127.52220313 -0.21680457 123.50853202 -0.20278788 119.49476767 C-0.19022621 115.28941569 -0.18910575 111.08406047 -0.18673706 106.87869263 C-0.18053819 98.9281144 -0.16414908 90.97759163 -0.14403808 83.02703774 C-0.12162931 73.97015405 -0.11067316 64.91326761 -0.10064721 55.85636306 C-0.07978134 37.23754401 -0.04463655 18.61877648 0 0 Z " fill="#CA1F1F" transform="translate(71,105)"/>
<path d="M0 0 C3.62158289 1.74905166 6.81217274 3.89626646 10.0625 6.25 C10.66610352 6.68401123 11.26970703 7.11802246 11.89160156 7.56518555 C17.85759971 11.86854078 23.77216831 16.24200447 29.68774414 20.61425781 C35.10016066 24.61148391 40.53888021 28.56962591 46 32.5 C56.19362711 39.8399468 66.2940177 47.30454712 76.39550781 54.77050781 C84.90093735 61.05501735 93.41808621 67.32019635 102 73.5 C112.28051657 80.90296109 122.47064684 88.42711476 132.65332031 95.96386719 C134.4332476 97.28125817 136.21359343 98.59808387 137.99438477 99.91430664 C139.67556246 101.15693014 141.35577691 102.40085814 143.03491211 103.64624023 C143.78780518 104.20255127 144.54069824 104.7588623 145.31640625 105.33203125 C145.98099854 105.82421143 146.64559082 106.3163916 147.33032227 106.82348633 C149.00015955 108.06242083 149.00015955 108.06242083 151 109 C151.495 64.45 151.495 64.45 152 19 C164.96166667 15.465 164.96166667 15.465 171.375 15.5625 C172.4578125 15.57385986 172.4578125 15.57385986 173.5625 15.58544922 C184.30131439 15.91036476 193.64204643 19.23795489 202 26 C202.92039062 26.71736328 202.92039062 26.71736328 203.859375 27.44921875 C212.29151039 34.85531997 216.52610046 46.1213999 218 57 C218.26908473 61.99918591 218.25385792 66.99193369 218.22705078 71.99658203 C218.22648559 73.48572278 218.22680534 74.97486409 218.22793579 76.46400452 C218.22850608 80.47779687 218.21680457 84.49146798 218.20278788 88.50523233 C218.19022621 92.71058431 218.18910575 96.91593953 218.18673706 101.12130737 C218.18053819 109.0718856 218.16414908 117.02240837 218.14403808 124.97296226 C218.12162931 134.02984595 218.11067316 143.08673239 218.10064721 152.14363694 C218.07978134 170.76245599 218.04463655 189.38122352 218 208 C214.90957312 207.29222955 212.90445529 206.43703127 210.33984375 204.55078125 C209.63867432 204.03974854 208.93750488 203.52871582 208.21508789 203.00219727 C207.46348389 202.44459717 206.71187988 201.88699707 205.9375 201.3125 C205.14529053 200.73234131 204.35308105 200.15218262 203.53686523 199.55444336 C201.02007728 197.7089969 198.50983688 195.85488527 196 194 C194.41960949 192.8380809 192.83888681 191.67661345 191.2578125 190.515625 C185.69940357 186.43012502 180.15207022 182.3296793 174.60449219 178.22949219 C166.09906265 171.94498265 157.58191379 165.67980365 149 159.5 C138.80658134 152.15975779 128.70598709 144.69545642 118.60449219 137.22949219 C110.09906265 130.94498265 101.58191379 124.67980365 93 118.5 C82.80658134 111.15975779 72.70598709 103.69545642 62.60449219 96.22949219 C54.09906074 89.94498123 45.58182534 83.67992873 37 77.5 C30.62258297 72.90637243 24.26853825 68.28237275 17.9375 63.625 C16.79571289 62.78678711 16.79571289 62.78678711 15.63085938 61.93164062 C14.19766745 60.87527392 12.77226391 59.80821358 11.35690308 58.72807312 C9.04310781 56.98029529 9.04310781 56.98029529 6.63223267 55.55610657 C3.14738156 53.28167443 0.47230249 51.5320561 -0.78727722 47.44622803 C-1.04077325 44.38553368 -1.01367159 41.44710026 -0.87890625 38.37890625 C-0.86617172 37.27900864 -0.85343719 36.17911102 -0.84031677 35.04588318 C-0.79012286 31.54913404 -0.67724944 28.05766702 -0.5625 24.5625 C-0.5173356 22.18562209 -0.47627446 19.80866242 -0.43945312 17.43164062 C-0.34047848 11.61930605 -0.19008689 5.81003031 0 0 Z " fill="#272727" transform="translate(71,47)"/>
</svg>
